<svg xmlns="http://www.w3.org/2000/svg" width="240" height="44" viewBox="0 0 240 44" fill="none"><script xmlns="http://www.w3.org/1999/xhtml" src="chrome-extension://fgddmllnllkalaagkghckoinaemmogpe/scripts/content/gps.js"></script><script xmlns=""/><script xmlns=""/><script xmlns=""/>
<path d="M63.7769 16.2806C63.7769 18.2355 63.3574 18.5763 61.2301 18.3257C59.7918 18.1553 58.7731 18.025 57.3748 18.025C55.2075 18.025 54.4485 18.4961 54.4485 19.3483C54.4485 20.7919 56.9554 21.0926 59.5821 21.9849C62.4286 22.9673 64.9255 24.3307 64.9255 28.5011C64.9255 33.4435 61.4498 35.0174 55.9366 35.0174C53.0902 35.0174 52.1214 34.9372 49.9141 34.6365C47.8766 34.3357 47.8367 33.6139 47.8367 31.659V31.4886C47.8367 29.4836 48.2162 29.2731 49.8741 29.4836C51.2325 29.654 52.2512 29.9047 54.4984 29.9047C56.3261 29.9047 58.2737 29.6039 58.2737 28.3307C58.2737 26.837 56.446 26.3758 54.0789 25.5638C50.9828 24.5813 48.1862 23.3082 48.1862 19.3884C48.1862 15.8094 50.1838 12.8721 56.1164 12.8721C58.1139 12.8721 60.3112 13.0024 62.0091 13.3432C63.4074 13.644 63.7869 14.1553 63.7869 16.1102V16.2806H63.7769Z" fill="#23233F"/>
<path d="M78.8382 35.0174C72.1365 35.0174 67.9817 31.0174 67.9817 23.8595C67.9817 16.4911 72.3463 12.8721 78.8382 12.8721C85.2902 12.8721 89.7447 16.4911 89.7447 23.8595C89.7447 31.0174 85.5 35.0174 78.8382 35.0174ZM78.8382 17.9448C76.0417 17.9448 74.4237 20.1603 74.4237 23.8595C74.4237 27.4786 75.782 29.9448 78.8382 29.9448C81.8545 29.9448 83.2927 27.4786 83.2927 23.8595C83.2927 20.1603 81.6847 17.9448 78.8382 17.9448Z" fill="#23233F"/>
<path d="M95.2578 18.365H94.4488C92.2815 18.365 91.7322 17.8938 91.7322 15.939V15.7284C91.7322 13.7735 92.2815 13.3024 94.4488 13.3024H95.2578V10.6156C95.2578 4.91139 97.8446 2.18457 103.617 2.18457C104.676 2.18457 106.034 2.3149 106.843 2.4352C108.541 2.68582 108.881 3.28733 108.881 5.24222V5.45274C108.881 7.57805 108.501 7.66828 107.782 7.62818C106.634 7.58808 106.174 7.45775 105.615 7.45775C102.309 7.45775 101.76 8.99159 101.76 12.1796V13.2823H105.615C107.782 13.2823 108.332 13.7535 108.332 15.7084V15.9189C108.332 17.8738 107.782 18.345 105.615 18.345H101.76V32.1395C101.76 34.0943 101.21 34.5655 99.0431 34.5655H98.0244C95.8171 34.5655 95.2678 34.0943 95.2678 32.1395V18.365H95.2578Z" fill="#23233F"/>
<path d="M112.946 18.3656H112.527C110.319 18.3656 109.77 17.8944 109.77 15.9395V15.729C109.77 13.7741 110.319 13.3029 112.527 13.3029H112.946V11.729C112.946 9.64375 113.625 9.26279 115.493 8.49086L116.851 7.93949C117.441 7.68886 117.91 7.59863 118.289 7.59863C119.178 7.59863 119.478 8.28034 119.478 9.64375V13.3029H122.444C124.612 13.3029 125.161 13.7741 125.161 15.729V15.9395C125.161 17.8944 124.612 18.3656 122.444 18.3656H119.478V25.7741C119.478 28.2904 119.987 29.7741 122.025 29.7741C123.173 29.7741 123.593 29.6939 124.142 29.5635C125.371 29.353 125.54 29.8142 125.54 31.739V31.9896C125.54 33.6036 125.201 34.2452 123.843 34.546C122.574 34.8468 120.826 35.0573 119.178 35.0573C114.894 35.0573 112.946 32.8417 112.946 25.8643V18.3656Z" fill="#23233F"/>
<path d="M144.837 21.5234C143.858 21.5234 143.608 21.353 143.608 20.6312V20.3806C143.608 17.1926 141.74 15.2678 138.514 15.2678C134.999 15.2678 132.062 17.6137 132.062 23.739C132.062 29.9144 135.159 32.6412 140.462 32.6412C142.16 32.6412 143.858 32.3906 145.426 32.1701C146.185 32.0899 146.315 32.3004 146.315 33.2327C146.315 34.165 146.065 34.3856 145.256 34.5059C143.348 34.8067 142.12 35.0172 139.823 35.0172C133.201 35.0172 129.046 31.4884 129.046 23.739C129.046 15.9495 133.371 12.8818 138.464 12.8818C143.338 12.8818 146.315 15.5184 146.315 20.2001V20.6212C146.315 21.2127 146.065 21.5134 145.046 21.5134H144.837V21.5234Z" fill="#666666"/>
<path d="M153.706 34.5861C152.727 34.5861 152.477 34.3756 152.477 33.4332V14.4558C152.477 13.5234 152.727 13.3029 153.706 13.3029H154.215C155.194 13.3029 155.443 13.5134 155.443 14.4558V16.6713C157.011 14.155 159.558 12.8818 161.336 12.8818C162.185 12.8818 162.565 12.8818 162.824 13.0122C163.294 13.1425 163.374 13.3129 163.374 14.0748V14.6262C163.374 15.5184 163.244 15.6889 162.734 15.6889C162.435 15.6889 161.845 15.6087 161.166 15.6087C159.049 15.6087 156.712 17.1425 155.443 19.739V33.4533C155.443 34.3856 155.194 34.6061 154.215 34.6061H153.706V34.5861Z" fill="#666666"/>
<path d="M180.892 32.9726C179.284 34.1255 176.737 35.0177 173.511 35.0177C168.887 35.0177 166.809 32.9726 166.809 29.3936C166.809 25.5641 169.316 23.559 174.53 23.559C176.567 23.559 179.064 23.7295 180.852 24.321V20.9124C180.852 16.9525 179.793 15.3385 175.249 15.3385C172.742 15.3385 170.665 15.8097 169.017 16.1906C168.208 16.321 167.998 16.0603 167.998 15.1681V15.0377C167.998 14.0152 168.168 13.8849 168.977 13.7144C170.924 13.2934 173.391 12.8623 175.888 12.8623C182.04 12.8623 183.818 15.2082 183.818 20.2307V33.4337C183.818 34.3661 183.569 34.5866 182.59 34.5866H182.46C181.481 34.5866 181.142 34.3761 180.932 33.4839L180.892 32.9726ZM180.852 30.6267V26.2458C179.154 25.5641 176.357 25.4839 175.379 25.4839C172.113 25.4839 169.866 26.336 169.866 29.2733C169.866 31.7395 171.394 32.8523 174.53 32.8523C177.336 32.8423 179.544 31.8698 180.852 30.6267Z" fill="#666666"/>
<path d="M192.607 15.7287H189.641C188.662 15.7287 188.412 15.4781 188.412 14.5758V14.4455C188.412 13.5132 188.662 13.2926 189.641 13.2926H192.607V10.4355C192.607 4.90162 194.345 2.1748 199.519 2.1748C201.087 2.1748 202.745 2.42543 203.164 2.51566C204.013 2.68608 204.143 2.93671 204.143 3.87907V4.00939C204.143 4.94172 203.973 5.07205 203.384 4.99185C202.745 4.91165 201.646 4.651 200.328 4.651C196.303 4.651 195.623 6.82644 195.623 10.9969V13.2926H202.195C203.174 13.2926 203.424 13.5031 203.424 14.4455V14.5758C203.424 15.468 203.174 15.7287 202.195 15.7287H195.623V33.443C195.623 34.3753 195.374 34.5959 194.395 34.5959H193.886C192.867 34.5959 192.617 34.3853 192.617 33.443V15.7287H192.607Z" fill="#666666"/>
<path d="M209.316 15.7293H206.64C205.621 15.7293 205.371 15.4787 205.371 14.5764V14.4461C205.371 13.5138 205.621 13.2932 206.64 13.2932H209.316V9.8847C209.316 8.95237 209.566 8.69172 210.465 8.35087L211.144 8.10024C212.073 7.75939 212.333 8.02004 212.333 8.91227V13.2932H218.016C218.994 13.2932 219.244 13.5037 219.244 14.4461V14.5764C219.244 15.4687 218.994 15.7293 218.016 15.7293H212.333V26.7569C212.333 30.807 212.922 32.5514 215.728 32.5514C216.917 32.5514 217.936 32.3408 218.785 32.1303C219.464 31.9599 219.544 32.3408 219.544 33.1128V33.2832C219.544 34.0451 219.374 34.3459 218.785 34.5163C217.856 34.7268 216.278 35.0276 214.76 35.0276C210.515 35.0276 209.326 32.8521 209.326 26.9373V15.7293H209.316Z" fill="#666666"/>
<path d="M227.684 43.9995C226.625 43.9995 226.326 43.6586 226.795 42.7664C228.064 39.9093 229.342 37.1925 230.53 34.4656C226.505 27.4381 224.298 20.3303 223.11 14.4556C223.03 13.5233 223.359 13.3027 224.298 13.3027H224.848C225.866 13.3027 225.946 13.5133 226.116 14.3654C227.215 19.3478 228.573 25.0922 231.799 31.3579C233.916 26.2451 235.704 20.9218 237.012 14.3654C237.092 13.5133 237.262 13.3027 238.281 13.3027H238.83C239.719 13.3027 240.099 13.5133 239.979 14.4556C237.732 25.824 233.746 33.9143 229.751 42.9368C229.372 43.7488 229.162 43.9995 228.183 43.9995H227.684Z" fill="#666666"/>
<path d="M33.6544 32.7813C33.6344 35.5282 32.5158 37.9944 30.7181 39.7989C28.9003 41.6234 26.4134 42.7462 23.6368 42.7462H5.21968C0.585423 42.7462 -1.7317 37.1222 1.54423 33.834L9.8739 25.4731C7.81645 23.7287 6.26838 21.4731 5.5193 18.9668C7.85641 21.2826 11.0824 22.6259 14.3284 22.656H23.4571C29.0202 22.646 33.7043 27.2074 33.6544 32.7813Z" fill="url(#paint0_linear_21816_2)"/>
<path d="M13.849 34.1152C13.849 37.4436 12.3908 40.5914 9.86389 42.7468H5.20966C0.575412 42.7468 -1.74171 37.1228 1.53422 33.8345L7.30706 28.0401L9.86389 25.4736C12.4007 27.629 13.849 30.7869 13.849 34.1152Z" fill="url(#paint1_linear_21816_2)"/>
<path d="M13.849 34.1152C13.849 37.4436 12.3908 40.5914 9.86396 42.7468C12.7404 35.7794 9.29466 30.3659 7.30713 28.0401L9.86396 25.4736C12.4008 27.629 13.849 30.7869 13.849 34.1152Z" fill="url(#paint2_linear_21816_2)"/>
<path d="M5.51904 18.957C5.7987 20.0698 6.33803 21.0924 6.97723 22.0247C7.60645 22.9671 8.35553 23.8192 9.19448 24.5811C10.0334 25.3029 10.9523 26.0848 11.6315 27.0272C12.3406 27.9495 12.8899 29.0021 13.2894 30.0949C13.5091 30.6362 13.619 31.2177 13.7588 31.7791C13.8387 32.3605 13.9586 32.932 13.9486 33.5234C14.0185 34.6864 13.8687 35.8693 13.5491 36.9821L13.2794 37.8142C13.1895 38.0849 13.0497 38.3455 12.9299 38.6162C12.7101 39.1575 12.3905 39.6387 12.1009 40.14C11.9611 40.3906 11.7713 40.6112 11.5915 40.8417L11.0622 41.5234C10.6826 41.9545 10.2632 42.3455 9.86365 42.7565C11.4117 41.0823 12.6202 39.0773 13.1696 36.8919C13.2594 36.6212 13.2894 36.3405 13.3294 36.0698C13.3693 35.7891 13.4392 35.5184 13.4492 35.2377C13.4792 34.6763 13.5291 34.1149 13.4792 33.5635C13.4792 33.0021 13.3493 32.4508 13.2694 31.8994C13.1196 31.358 13.0098 30.8067 12.79 30.2854C12.4205 29.2327 11.9111 28.2202 11.2419 27.328C11.0921 27.0874 10.9024 26.8869 10.7226 26.6763C10.5428 26.4658 10.363 26.2453 10.1533 26.0648C9.76378 25.6838 9.31434 25.2929 8.90484 24.8919C7.30682 23.2478 5.91855 21.2427 5.51904 18.957Z" fill="white"/>
<path d="M4.19107 9.97468C4.21104 7.22781 5.32966 4.76165 7.12743 2.95713C8.94517 1.13257 11.4321 0.00976562 14.2086 0.00976562H32.6258C37.2601 0.00976562 39.5772 5.63383 36.3012 8.92205L27.9716 17.2829C30.029 19.0273 31.5771 21.2829 32.3262 23.7892C29.9891 21.4734 26.7631 20.1301 23.5171 20.1H14.3884C8.82532 20.11 4.14113 15.5486 4.19107 9.97468Z" fill="url(#paint3_linear_21816_2)"/>
<path d="M23.9961 8.64135C23.9961 5.31302 25.4543 2.16515 27.9811 0.00976562H32.6354C37.2696 0.00976562 39.5868 5.63383 36.3108 8.92205L30.538 14.7165L27.9811 17.2829C25.4443 15.1276 23.9961 11.9697 23.9961 8.64135Z" fill="url(#paint4_linear_21816_2)"/>
<path d="M23.9961 8.64135C23.9961 5.31302 25.4543 2.16515 27.9811 0.00976562C25.1047 6.97718 28.5504 12.3907 30.538 14.7165L27.9811 17.2829C25.4443 15.1276 23.9961 11.9697 23.9961 8.64135Z" fill="url(#paint5_linear_21816_2)"/>
<path d="M32.3258 23.7995C32.0462 22.6867 31.5068 21.6642 30.8676 20.7318C30.2384 19.7895 29.4894 18.9373 28.6504 18.1754C27.8114 17.4536 26.8926 16.6717 26.2134 15.7293C25.5043 14.807 24.955 13.7544 24.5555 12.6617C24.3357 12.1203 24.2259 11.5388 24.0861 10.9774C24.0062 10.396 23.8863 9.82456 23.8963 9.23308C23.8264 8.07018 23.9762 6.88722 24.2958 5.77444L24.5655 4.94236C24.6553 4.67168 24.7952 4.41103 24.915 4.14035C25.1347 3.599 25.4544 3.11779 25.744 2.61654C25.8838 2.36592 26.0736 2.14536 26.2534 1.91479L26.7827 1.23308C27.1622 0.802006 27.5817 0.411028 27.9812 0C26.4331 1.67419 25.2246 3.6792 24.6753 5.86466C24.5854 6.13534 24.5555 6.41604 24.5155 6.68672C24.4756 6.96742 24.4057 7.2381 24.3957 7.5188C24.3657 8.0802 24.3158 8.6416 24.3657 9.19298C24.3657 9.75439 24.4955 10.3058 24.5754 10.8571C24.7253 11.3985 24.8351 11.9499 25.0548 12.4712C25.4244 13.5238 25.9338 14.5363 26.6029 15.4286C26.7527 15.6692 26.9425 15.8697 27.1223 16.0802C27.3021 16.2907 27.4818 16.5113 27.6916 16.6917C28.0811 17.0727 28.5305 17.4637 28.94 17.8647C30.5381 19.5188 31.9263 21.5138 32.3258 23.7995Z" fill="white"/>
<defs>
<linearGradient id="paint0_linear_21816_2" x1="-0.305273" y1="30.8318" x2="33.2417" y2="30.9686" gradientUnits="userSpaceOnUse">
<stop stop-color="#9708CC"/>
<stop offset="1" stop-color="#43CBFF"/>
</linearGradient>
<linearGradient id="paint1_linear_21816_2" x1="-1.56853" y1="34.1112" x2="11.6124" y2="34.1112" gradientUnits="userSpaceOnUse">
<stop stop-color="#E5087B"/>
<stop offset="1" stop-color="#FDD819"/>
</linearGradient>
<linearGradient id="paint2_linear_21816_2" x1="10.0064" y1="25.6133" x2="11.4818" y2="38.6585" gradientUnits="userSpaceOnUse">
<stop stop-color="#E5087B"/>
<stop offset="1" stop-color="#FDD819"/>
</linearGradient>
<linearGradient id="paint3_linear_21816_2" x1="38.1515" y1="11.9261" x2="4.60465" y2="11.7893" gradientUnits="userSpaceOnUse">
<stop stop-color="#9708CC"/>
<stop offset="1" stop-color="#43CBFF"/>
</linearGradient>
<linearGradient id="paint4_linear_21816_2" x1="39.4144" y1="8.64726" x2="26.2335" y2="8.64726" gradientUnits="userSpaceOnUse">
<stop stop-color="#E5087B"/>
<stop offset="1" stop-color="#FDD819"/>
</linearGradient>
<linearGradient id="paint5_linear_21816_2" x1="27.8395" y1="17.1451" x2="26.3642" y2="4.09992" gradientUnits="userSpaceOnUse">
<stop stop-color="#E5087B"/>
<stop offset="1" stop-color="#FDD819"/>
</linearGradient>
</defs>
</svg>